<mxfile host="65bd71144e">
    <diagram id="c-VzSbSIOutqZqG4g10K" name="Page-1">
        <mxGraphModel dx="942" dy="669" grid="1" gridSize="10" guides="1" tooltips="1" connect="1" arrows="1" fold="1" page="1" pageScale="1" pageWidth="1100" pageHeight="850" math="0" shadow="0">
            <root>
                <mxCell id="0"/>
                <mxCell id="1" parent="0"/>
                <mxCell id="7" style="edgeStyle=none;html=1;exitX=1;exitY=0.5;exitDx=0;exitDy=0;entryX=0;entryY=0.5;entryDx=0;entryDy=0;fontSize=11;" edge="1" parent="1" source="3" target="5">
                    <mxGeometry relative="1" as="geometry"/>
                </mxCell>
                <mxCell id="3" value="" style="ellipse;whiteSpace=wrap;html=1;aspect=fixed;fillColor=#000000;fontSize=11;" vertex="1" parent="1">
                    <mxGeometry x="135" y="285" width="10" height="10" as="geometry"/>
                </mxCell>
                <mxCell id="4" value="Start" style="text;html=1;align=center;verticalAlign=middle;whiteSpace=wrap;rounded=0;fontSize=11;" vertex="1" parent="1">
                    <mxGeometry x="110" y="260" width="60" height="30" as="geometry"/>
                </mxCell>
                <mxCell id="11" value="" style="group;fontSize=11;fillColor=none;" vertex="1" connectable="0" parent="1">
                    <mxGeometry x="360" y="260" width="80" height="60" as="geometry"/>
                </mxCell>
                <mxCell id="9" value="" style="rounded=1;whiteSpace=wrap;html=1;fontSize=11;fillColor=#dae8fc;strokeColor=#6c8ebf;" vertex="1" parent="11">
                    <mxGeometry width="80" height="60" as="geometry"/>
                </mxCell>
                <mxCell id="10" value="Game&lt;div&gt;001&lt;/div&gt;" style="text;html=1;align=center;verticalAlign=middle;whiteSpace=wrap;rounded=0;fontSize=11;" vertex="1" parent="11">
                    <mxGeometry x="16" y="15" width="48" height="30" as="geometry"/>
                </mxCell>
                <mxCell id="12" value="" style="group;fontSize=11;" vertex="1" connectable="0" parent="1">
                    <mxGeometry x="200" y="260" width="80" height="60" as="geometry"/>
                </mxCell>
                <mxCell id="5" value="" style="rounded=1;whiteSpace=wrap;html=1;fontSize=11;" vertex="1" parent="12">
                    <mxGeometry width="80" height="60" as="geometry"/>
                </mxCell>
                <mxCell id="8" value="Initial&lt;div&gt;000&lt;/div&gt;" style="text;html=1;align=center;verticalAlign=middle;whiteSpace=wrap;rounded=0;fontSize=11;" vertex="1" parent="12">
                    <mxGeometry x="16" y="15" width="48" height="30" as="geometry"/>
                </mxCell>
                <mxCell id="13" style="edgeStyle=none;html=1;fontSize=11;" edge="1" parent="1" source="5" target="9">
                    <mxGeometry relative="1" as="geometry"/>
                </mxCell>
                <mxCell id="14" value="Press&lt;div&gt;button&lt;/div&gt;" style="text;html=1;align=center;verticalAlign=middle;whiteSpace=wrap;rounded=0;fontSize=11;" vertex="1" parent="1">
                    <mxGeometry x="290" y="260" width="60" height="30" as="geometry"/>
                </mxCell>
                <mxCell id="15" value="" style="group;fontSize=11;" vertex="1" connectable="0" parent="1">
                    <mxGeometry x="360" y="150" width="80" height="60" as="geometry"/>
                </mxCell>
                <mxCell id="16" value="" style="rounded=1;whiteSpace=wrap;html=1;fontSize=11;" vertex="1" parent="15">
                    <mxGeometry width="80" height="60" as="geometry"/>
                </mxCell>
                <mxCell id="17" value="Pause&lt;div&gt;010&lt;/div&gt;" style="text;html=1;align=center;verticalAlign=middle;whiteSpace=wrap;rounded=0;fontSize=11;" vertex="1" parent="15">
                    <mxGeometry x="16" y="15" width="48" height="30" as="geometry"/>
                </mxCell>
                <mxCell id="18" style="edgeStyle=none;html=1;fontSize=11;" edge="1" parent="1">
                    <mxGeometry relative="1" as="geometry">
                        <mxPoint x="390" y="260" as="sourcePoint"/>
                        <mxPoint x="390" y="210" as="targetPoint"/>
                    </mxGeometry>
                </mxCell>
                <mxCell id="19" value="SW on" style="text;align=center;verticalAlign=middle;whiteSpace=wrap;rounded=0;spacing=2;html=1;fontSize=11;" vertex="1" parent="1">
                    <mxGeometry x="340" y="220" width="60" height="30" as="geometry"/>
                </mxCell>
                <mxCell id="25" style="edgeStyle=none;html=1;entryX=0.5;entryY=0;entryDx=0;entryDy=0;fontSize=11;" edge="1" parent="1">
                    <mxGeometry relative="1" as="geometry">
                        <mxPoint x="410" y="210" as="sourcePoint"/>
                        <mxPoint x="410" y="260" as="targetPoint"/>
                    </mxGeometry>
                </mxCell>
                <mxCell id="26" value="SW off" style="text;align=center;verticalAlign=middle;whiteSpace=wrap;rounded=0;spacing=2;html=1;fontSize=11;" vertex="1" parent="1">
                    <mxGeometry x="400" y="220" width="60" height="30" as="geometry"/>
                </mxCell>
                <mxCell id="29" value="" style="group;fontSize=11;" vertex="1" connectable="0" parent="1">
                    <mxGeometry x="520" y="260" width="80" height="60" as="geometry"/>
                </mxCell>
                <mxCell id="30" value="" style="rounded=1;whiteSpace=wrap;html=1;fontSize=11;fillColor=#fff2cc;strokeColor=#d6b656;" vertex="1" parent="29">
                    <mxGeometry width="80" height="60" as="geometry"/>
                </mxCell>
                <mxCell id="31" value="Score!&lt;div&gt;100&lt;/div&gt;" style="text;html=1;align=center;verticalAlign=middle;whiteSpace=wrap;rounded=0;fontSize=11;" vertex="1" parent="29">
                    <mxGeometry x="16" y="15" width="48" height="30" as="geometry"/>
                </mxCell>
                <mxCell id="34" value="Score" style="text;html=1;align=center;verticalAlign=middle;whiteSpace=wrap;rounded=0;fontSize=11;" vertex="1" parent="1">
                    <mxGeometry x="450" y="250.00285714285712" width="60" height="30" as="geometry"/>
                </mxCell>
                <mxCell id="33" style="edgeStyle=none;html=1;exitX=1;exitY=0.5;exitDx=0;exitDy=0;fontSize=11;" edge="1" parent="1">
                    <mxGeometry relative="1" as="geometry">
                        <mxPoint x="520" y="280" as="targetPoint"/>
                        <mxPoint x="440" y="280" as="sourcePoint"/>
                    </mxGeometry>
                </mxCell>
                <mxCell id="36" style="edgeStyle=none;html=1;entryX=1;entryY=0.75;entryDx=0;entryDy=0;fontSize=11;" edge="1" parent="1">
                    <mxGeometry relative="1" as="geometry">
                        <mxPoint x="520" y="295" as="sourcePoint"/>
                        <mxPoint x="440" y="295" as="targetPoint"/>
                    </mxGeometry>
                </mxCell>
                <mxCell id="37" value="After 0.5 s" style="text;html=1;align=center;verticalAlign=middle;whiteSpace=wrap;rounded=0;fontSize=11;" vertex="1" parent="1">
                    <mxGeometry x="450" y="295.0028571428571" width="60" height="30" as="geometry"/>
                </mxCell>
            </root>
        </mxGraphModel>
    </diagram>
</mxfile>